<?xml version="1.0" encoding="utf-8"?>
<!-- Generator: Adobe Illustrator 22.0.1, SVG Export Plug-In . SVG Version: 6.00 Build 0)  -->
<svg version="1.1" xmlns="http://www.w3.org/2000/svg" xmlns:xlink="http://www.w3.org/1999/xlink" x="0px" y="0px"
	 viewBox="0 0 930 850" enable-background="new 0 0 930 850" xml:space="preserve" style="width: 800px;">
<g id="Area_A">
	<path opacity="0.2" fill="#FDDA00" stroke="#000000" stroke-width="3" stroke-miterlimit="10" d="M475,34.5
		c64.4-11.3,187.1,22.6,234,99c27,44,3.8,61.3-12,88c-16,27-51,42-56,58s-5,16-5,16s4,29,18,41s129,60,154,91s33,37,5,69
		s-139,40-191,63s-67,51-36,85s44,38,83,35s50,13,27,49s-89.9,39.6-138,27c-42-11-130-56-154-85s-66.4-68.8-36-151
		c27-73-3.7-109-10.8-127c-7.2-18-29.2-16-48.2-38s-17-36,0-56s45-36,27-71S372,52.5,475,34.5z"/>
</g>
<g id="Area_B">
	<path opacity="0.2" fill="#4F54A3" stroke="#000000" stroke-width="3" stroke-miterlimit="10" d="M752,458c48.9,9.6,150,15,106-148
		S739,139,656,143s-94,22-108,42s-23.7,33.2-54.8,30.9c-31.2-2.2-64.7-13.3-67.2,44.5c-2.1,47.6,20,80.5-93,127.5
		s-110.9,148.4-73,269c17.5,55.7,65.7,97,105,112s71-15,38-49s-41.1-51.3-22-89.7C400.1,592,421,569,536,659s144.8,70,154,20.9
		c9.2-49.1-16.5-111.4-25.2-161.5C653,450,718.2,451.3,752,458z"/>
</g>
<g id="Area_C">
	<path opacity="0.2" fill="#7F1518" stroke="#000000" stroke-width="3" stroke-miterlimit="10" d="M631,655
		c28.8,42.6,90.8,113.2,198.7-29c74.3-98,37.4-173,14.3-216c-7.1-13.3-33-38.2-62-62c-20.6-16.9-40-20-62-22s-45,3.7-60.2-25.6
		C644.7,271.2,623,234,569,288s-98,19-140,3s-74.5-52.8-167.8-5.9S139,415,130,455s8.8,86,24.9,106c16.1,20,53,33.4,45.4-35
		c-2.3-21,19-38.8,46.7-53s64-33,81,38s-9,138,13,191s80,47,136-29S565.4,557.7,631,655z"/>
</g>
<g id="Area_D">
	<path opacity="0.2" fill="#CA4C9C" stroke="#000000" stroke-width="3" stroke-miterlimit="10" d="M395,682c-22,64,3,145,167.1,129
		c181.3-17.7,171.7-152.3,172.3-193.6C735,576,723,554,708,540s-19-48-9-68s28-45-29-63s-97.2-16.6-109.2-111
		C548.7,203.6,479,160,357,152s-189,54-189,98s29.2,40.3,62.1,14.7C263,239,292,261,309,276s17,15,17,15s38,44-75,129
		s-150.8,149.6,43.5,151C437,572,418.9,612.4,395,682z"/>
</g>
<g id="Area_E">
	<path opacity="0.2" fill="#2B3377" stroke="#000000" stroke-width="3" stroke-miterlimit="10" d="M236,510.1
		c-51.7,15.2-110,52.8-63,135.4s157,182.6,259,125.6s104-90,103-113s46-42,59-46s45-18.3,26-54c-19-35.7-59.2-81,5.9-153
		c65.1-72,78.9-129,0-238C547,58.1,491.1,62.2,465,62.1c-34-0.1-102.4,39.1-26,64c30.7,10,50,44,50,63s26.2,70.7-71.1,60
		c-68.7-7.6-101.9-16.9-145.9-27c-83-19-114,36-53,109S355.6,475,236,510.1z"/>
</g>
<g id="Area_F">
	<path opacity="0.2" fill="#E7E6AA" stroke="#000000" stroke-width="3" stroke-miterlimit="10" d="M255,279c-32-24-97-60-134,35
		s-35,198,0,234s84,66,134,73s58.2,1.5,81-15s54,5.9,74,18c20,12,47,3,57-19s10-22,10-22l0,0c0,0,8-65,116-61s141-23,184-134
		s5-173-21-209s-86-21-59,26s-12,79-23,86s-42,36-84-18s-43-100-91-153s-73.8-40.6-99,23c-14.2,35.9-20,86-34,130S299,312,255,279z"
		/>
</g>
<g id="Area_G">
	<path opacity="0.2" fill="#79C144" stroke="#000000" stroke-width="3" stroke-miterlimit="10" d="M439,107.6
		c-12.7-26.2-33-39-76-36s-139,40-169,82s-54,106-25,179s62,81,81,88s24,28,29,55s14,49,59,41s75-21,124,35s74,100,160,95
		s229-60.6,231-173c0.8-47-39.4-68.7-58-23c-9.1,22.3-29,38-50,38s-69-5-72-34s40.1-128.4,63-185c15.5-38.4,22.5-105-71-84
		c-49,11-94,42-125,49s-31,7-31,7s-39,3-49-36S454,138.6,439,107.6z"/>
</g>
<g id="Text">
	
		<text transform="matrix(1 0 0 1 305.6428 134.3825)" fill="#262262" stroke="#000000" stroke-width="0.5" stroke-miterlimit="10" font-family="'Tahoma'" font-size="36px">152</text>
	
		<text transform="matrix(1 0 0 1 171.3438 310.0757)" fill="#262262" stroke="#000000" stroke-width="0.5" stroke-miterlimit="10" font-family="'Tahoma'" font-size="12px">2</text>
	
		<text transform="matrix(1 0 0 1 132.092 359.0506)" fill="#262262" stroke="#000000" stroke-width="0.5" stroke-miterlimit="10" font-family="'Tahoma'" font-size="36px">170</text>
	
		<text transform="matrix(1 0 0 1 215.3724 291.8718)" fill="#262262" stroke="#000000" stroke-width="0.5" stroke-miterlimit="10" font-family="'Tahoma'" font-size="10px">0</text>
	
		<text transform="matrix(1 0 0 1 259.2081 270.1104)" fill="#262262" stroke="#000000" stroke-width="0.5" stroke-miterlimit="10" font-family="'Tahoma'" font-size="10px">0</text>
	
		<text transform="matrix(1 0 0 1 213.5051 594.3689)" fill="#262262" stroke="#000000" stroke-width="0.5" stroke-miterlimit="10" font-family="'Tahoma'" font-size="12px">0</text>
	
		<text transform="matrix(1 0 0 1 230.6357 690.7299)" fill="#262262" stroke="#000000" stroke-width="0.5" stroke-miterlimit="10" font-family="'Tahoma'" font-size="36px">1337</text>
	
		<text transform="matrix(1 0 0 1 193.9033 270.1106)" fill="#262262" stroke="#000000" stroke-width="0.5" stroke-miterlimit="10" font-family="'Tahoma'" font-size="10px">0</text>
	
		<text transform="matrix(1 0 0 1 169.1414 269.1104)" fill="#262262" stroke="#000000" stroke-width="0.5" stroke-miterlimit="10" font-family="'Tahoma'" font-size="10px">0</text>
	
		<text transform="matrix(1 0 0 1 259.5505 242.4933)" fill="#262262" stroke="#000000" stroke-width="0.5" stroke-miterlimit="10" font-family="'Tahoma'" font-size="10px">0</text>
	
		<text transform="matrix(1 0 0 1 211.1964 549.2377)" fill="#262262" stroke="#000000" stroke-width="0.5" stroke-miterlimit="10" font-family="'Tahoma'" font-size="10px">0</text>
	
		<text transform="matrix(1 0 0 1 270.5275 191.6759)" fill="#262262" stroke="#000000" stroke-width="0.5" stroke-miterlimit="10" font-family="'Tahoma'" font-size="12px">0</text>
	
		<text transform="matrix(1 0 0 1 218.1241 505.3453)" fill="#262262" stroke="#000000" stroke-width="0.5" stroke-miterlimit="10" font-family="'Tahoma'" font-size="10px">0</text>
	
		<text transform="matrix(1 0 0 1 437.5217 741.7651)" fill="#262262" stroke="#000000" stroke-width="0.5" stroke-miterlimit="10" font-family="'Tahoma'" font-size="12px">22</text>
	
		<text transform="matrix(1 0 0 1 500.6522 795.7754)" fill="#262262" stroke="#000000" stroke-width="0.5" stroke-miterlimit="10" font-family="'Tahoma'" font-size="36px">2380</text>
	
		<text transform="matrix(1 0 0 1 301.9238 385.231)" fill="#262262" stroke="#000000" stroke-width="0.5" stroke-miterlimit="10" font-family="'Tahoma'" font-size="10px">3</text>
	
		<text transform="matrix(1 0 0 1 253.5978 340.5336)" fill="#262262" stroke="#000000" stroke-width="0.5" stroke-miterlimit="10" font-family="'Tahoma'" font-size="10px">0</text>
	
		<text transform="matrix(1 0 0 1 258.7454 419.0425)" fill="#262262" stroke="#000000" stroke-width="0.5" stroke-miterlimit="10" font-family="'Tahoma'" font-size="10px">0</text>
	
		<text transform="matrix(1 0 0 1 306.121 275.1728)" fill="#262262" stroke="#000000" stroke-width="0.5" stroke-miterlimit="10" font-family="'Tahoma'" font-size="10px">1</text>
	
		<text transform="matrix(1 0 0 1 176.5263 551.238)" fill="#262262" stroke="#000000" stroke-width="0.5" stroke-miterlimit="10" font-family="'Tahoma'" font-size="10px">0</text>
	
		<text transform="matrix(1 0 0 1 215.1749 376.2531)" fill="#262262" stroke="#000000" stroke-width="0.5" stroke-miterlimit="10" font-family="'Tahoma'" font-size="10px">0</text>
	
		<text transform="matrix(1 0 0 1 281.4556 288.3495)" fill="#262262" stroke="#000000" stroke-width="0.5" stroke-miterlimit="10" font-family="'Tahoma'" font-size="10px">0</text>
	
		<text transform="matrix(1 0 0 1 172.5229 571.1213)" fill="#262262" stroke="#000000" stroke-width="0.5" stroke-miterlimit="10" font-family="'Tahoma'" font-size="10px">0</text>
	
		<text transform="matrix(1 0 0 1 695.5679 596.9269)" fill="#262262" stroke="#000000" stroke-width="0.5" stroke-miterlimit="10" font-family="'Tahoma'" font-size="10px">0</text>
	
		<text transform="matrix(1 0 0 1 205.0928 475.5615)" fill="#262262" stroke="#000000" stroke-width="0.5" stroke-miterlimit="10" font-family="'Tahoma'" font-size="10px">0</text>
	
		<text transform="matrix(1 0 0 1 405.5601 707.9451)" fill="#262262" stroke="#000000" stroke-width="0.5" stroke-miterlimit="10" font-family="'Tahoma'" font-size="10px">15</text>
	
		<text transform="matrix(1 0 0 1 766.0781 556.2225)" fill="#262262" stroke="#000000" stroke-width="0.5" stroke-miterlimit="10" font-family="'Tahoma'" font-size="12px">0</text>
	
		<text transform="matrix(1 0 0 1 171.7449 433.026)" fill="#262262" stroke="#000000" stroke-width="0.5" stroke-miterlimit="10" font-family="'Tahoma'" font-size="12px">0</text>
	
		<text transform="matrix(1 0 0 1 379.2468 671.6184)" fill="#262262" stroke="#000000" stroke-width="0.5" stroke-miterlimit="10" font-family="'Tahoma'" font-size="10px">0</text>
	
		<text transform="matrix(1 0 0 1 703.5311 659.9883)" fill="#262262" stroke="#000000" stroke-width="0.5" stroke-miterlimit="10" font-family="'Tahoma'" font-size="12px">0</text>
	
		<text transform="matrix(1 0 0 1 770.8669 646.3877)" fill="#262262" stroke="#000000" stroke-width="0.5" stroke-miterlimit="10" font-family="'Tahoma'" font-size="36px">566</text>
	
		<text transform="matrix(1 0 0 1 316.915 453.5522)" fill="#262262" stroke="#000000" stroke-width="0.5" stroke-miterlimit="10" font-family="'Tahoma'" font-size="12px">10</text>
	
		<text id="BDEFG" transform="matrix(1 0 0 1 287.9802 498.6269)" fill="#262262" stroke="#000000" stroke-width="0.5" stroke-miterlimit="10" font-family="'Tahoma'" font-size="10px">1</text>
	
		<text transform="matrix(1 0 0 1 645.0638 323.7969)" fill="#262262" stroke="#000000" stroke-width="0.5" stroke-miterlimit="10" font-family="'Tahoma'" font-size="10px">0</text>
	
		<text transform="matrix(1 0 0 1 268.1431 444.4151)" fill="#262262" stroke="#000000" stroke-width="0.5" stroke-miterlimit="10" font-family="'Tahoma'" font-size="10px">0</text>
	
		<text transform="matrix(1 0 0 1 582.838 594.3693)" fill="#262262" stroke="#000000" stroke-width="0.5" stroke-miterlimit="10" font-family="'Tahoma'" font-size="10px">3</text>
	
		<text transform="matrix(1 0 0 1 332.8662 533.3319)" fill="#262262" stroke="#000000" stroke-width="0.5" stroke-miterlimit="10" font-family="'Tahoma'" font-size="10px">2</text>
	
		<text transform="matrix(1 0 0 1 661.8981 305.9448)" fill="#262262" stroke="#000000" stroke-width="0.5" stroke-miterlimit="10" font-family="'Tahoma'" font-size="10px">0</text>
	
		<text transform="matrix(1 0 0 1 274.1459 475.5614)" fill="#262262" stroke="#000000" stroke-width="0.5" stroke-miterlimit="10" font-family="'Tahoma'" font-size="10px">0</text>
	
		<text transform="matrix(1 0 0 1 567.873 615.0109)" fill="#262262" stroke="#000000" stroke-width="0.5" stroke-miterlimit="10" font-family="'Tahoma'" font-size="10px">0</text>
	
		<text transform="matrix(1 0 0 1 266.8514 545.871)" fill="#262262" stroke="#000000" stroke-width="0.5" stroke-miterlimit="10" font-family="'Tahoma'" font-size="10px">0</text>
	
		<text transform="matrix(1 0 0 1 677.5524 341.5336)" fill="#262262" stroke="#000000" stroke-width="0.5" stroke-miterlimit="10" font-family="'Tahoma'" font-size="10px">0</text>
	
		<text transform="matrix(1 0 0 1 634.9558 295.3451)" fill="#262262" stroke="#000000" stroke-width="0.5" stroke-miterlimit="10" font-family="'Tahoma'" font-size="10px">0</text>
	
		<text transform="matrix(1 0 0 1 333.3509 592.3684)" fill="#262262" stroke="#000000" stroke-width="0.5" stroke-miterlimit="10" font-family="'Tahoma'" font-size="10px">0</text>
	
		<text transform="matrix(1 0 0 1 636.3699 605.9897)" fill="#262262" stroke="#000000" stroke-width="0.5" stroke-miterlimit="10" font-family="'Tahoma'" font-size="10px">0</text>
	
		<text transform="matrix(1 0 0 1 250.4023 460.4708)" fill="#262262" stroke="#000000" stroke-width="0.5" stroke-miterlimit="10" font-family="'Tahoma'" font-size="10px">0</text>
	
		<text transform="matrix(1 0 0 1 386.4348 729.4913)" fill="#262262" stroke="#000000" stroke-width="0.5" stroke-miterlimit="10" font-family="'Tahoma'" font-size="10px">56</text>
	
		<text transform="matrix(1 0 0 1 692.166 295.3453)" fill="#262262" stroke="#000000" stroke-width="0.5" stroke-miterlimit="10" font-family="'Tahoma'" font-size="12px">0</text>
	
		<text transform="matrix(1 0 0 1 655.8109 279.2825)" fill="#262262" stroke="#000000" stroke-width="0.5" stroke-miterlimit="10" font-family="'Tahoma'" font-size="10px">0</text>
	
		<text transform="matrix(1 0 0 1 278.0695 601.9829)" fill="#262262" stroke="#000000" stroke-width="0.5" stroke-miterlimit="10" font-family="'Tahoma'" font-size="10px">0</text>
	
		<text transform="matrix(1 0 0 1 587.6461 638.4418)" fill="#262262" stroke="#000000" stroke-width="0.5" stroke-miterlimit="10" font-family="'Tahoma'" font-size="10px">0</text>
	
		<text transform="matrix(1 0 0 1 250.5278 489.9001)" fill="#262262" stroke="#000000" stroke-width="0.5" stroke-miterlimit="10" font-family="'Tahoma'" font-size="10px">0</text>
	
		<text transform="matrix(1 0 0 1 396.1322 751.1334)" fill="#262262" stroke="#000000" stroke-width="0.5" stroke-miterlimit="10" font-family="'Tahoma'" font-size="10px">4</text>
	
		<text transform="matrix(1 0 0 1 821.3827 443.2768)" fill="#262262" stroke="#000000" stroke-width="0.5" stroke-miterlimit="10" font-family="'Tahoma'" font-size="10px">0</text>
	
		<text transform="matrix(1 0 0 1 732.2147 358.479)" fill="#262262" stroke="#000000" stroke-width="0.5" stroke-miterlimit="10" font-family="'Tahoma'" font-size="10px">0</text>
	
		<text transform="matrix(1 0 0 1 342.6166 632.3353)" fill="#262262" stroke="#000000" stroke-width="0.5" stroke-miterlimit="10" font-family="'Tahoma'" font-size="10px">0</text>
	
		<text transform="matrix(1 0 0 1 654.6543 662.9887)" fill="#262262" stroke="#000000" stroke-width="0.5" stroke-miterlimit="10" font-family="'Tahoma'" font-size="10px">0</text>
	
		<text transform="matrix(1 0 0 1 683.1628 254.1779)" fill="#262262" stroke="#000000" stroke-width="0.5" stroke-miterlimit="10" font-family="'Tahoma'" font-size="10px">0</text>
	
		<text transform="matrix(1 0 0 1 755.5379 295.6925)" fill="#262262" stroke="#000000" stroke-width="0.5" stroke-miterlimit="10" font-family="'Tahoma'" font-size="12px">0</text>
	
		<text transform="matrix(1 0 0 1 295.2946 660.9879)" fill="#262262" stroke="#000000" stroke-width="0.5" stroke-miterlimit="10" font-family="'Tahoma'" font-size="10px">0</text>
	
		<text transform="matrix(1 0 0 1 609.9515 662.9885)" fill="#262262" stroke="#000000" stroke-width="0.5" stroke-miterlimit="10" font-family="'Tahoma'" font-size="10px">0</text>
	
		<text transform="matrix(1 0 0 1 797.7885 402.2477)" fill="#262262" stroke="#000000" stroke-width="0.5" stroke-miterlimit="10" font-family="'Tahoma'" font-size="12px">0</text>
	
		<text transform="matrix(1 0 0 1 819.061 343.658)" fill="#262262" stroke="#000000" stroke-width="0.5" stroke-miterlimit="10" font-family="'Tahoma'" font-size="36px">767</text>
	
		<text id="ABCDEFG" transform="matrix(1 0 0 1 414.7592 443.2766)" fill="#FFFFFF" stroke="#000000" stroke-width="0.5" stroke-miterlimit="10" font-family="'Tahoma'" font-size="36px">37</text>
	
		<text transform="matrix(1 0 0 1 356.0366 323.7971)" fill="#262262" stroke="#000000" stroke-width="0.5" stroke-miterlimit="10" font-family="'Tahoma'" font-size="12px">10</text>
	
		<text transform="matrix(1 0 0 1 475.6224 284.4216)" fill="#262262" stroke="#000000" stroke-width="0.5" stroke-miterlimit="10" font-family="'Tahoma'" font-size="12px">1</text>
	
		<text transform="matrix(1 0 0 1 586.2012 340.5335)" fill="#262262" stroke="#000000" stroke-width="0.5" stroke-miterlimit="10" font-family="'Tahoma'" font-size="12px">0</text>
	
		<text transform="matrix(1 0 0 1 611.7184 467.1723)" fill="#262262" stroke="#000000" stroke-width="0.5" stroke-miterlimit="10" font-family="'Tahoma'" font-size="12px">1</text>
	
		<text transform="matrix(1 0 0 1 526.6833 565.3593)" fill="#262262" stroke="#000000" stroke-width="0.5" stroke-miterlimit="10" font-family="'Tahoma'" font-size="12px">3</text>
	
		<text transform="matrix(1 0 0 1 383.9732 559.1869)" fill="#262262" stroke="#000000" stroke-width="0.5" stroke-miterlimit="10" font-family="'Tahoma'" font-size="12px">5</text>
	
		<text transform="matrix(1 0 0 1 384.4413 264.1823)" fill="#262262" stroke="#000000" stroke-width="0.5" stroke-miterlimit="10" font-family="'Tahoma'" font-size="10px">3</text>
	
		<text transform="matrix(1 0 0 1 298.6116 329.4335)" fill="#262262" stroke="#000000" stroke-width="0.5" stroke-miterlimit="10" font-family="'Tahoma'" font-size="10px">0</text>
	
		<text transform="matrix(1 0 0 1 661.2174 500.2031)" fill="#262262" stroke="#000000" stroke-width="0.5" stroke-miterlimit="10" font-family="'Tahoma'" font-size="10px">0</text>
	
		<text transform="matrix(1 0 0 1 327.1784 284.4218)" fill="#262262" stroke="#000000" stroke-width="0.5" stroke-miterlimit="10" font-family="'Tahoma'" font-size="10px">1</text>
	
		<text transform="matrix(1 0 0 1 419.3622 617.5801)" fill="#262262" stroke="#000000" stroke-width="0.5" stroke-miterlimit="10" font-family="'Tahoma'" font-size="10px">0</text>
	
		<text transform="matrix(1 0 0 1 550.385 260.4855)" fill="#262262" stroke="#000000" stroke-width="0.5" stroke-miterlimit="10" font-family="'Tahoma'" font-size="10px">0</text>
	
		<text transform="matrix(1 0 0 1 435.9514 240.4931)" fill="#262262" stroke="#000000" stroke-width="0.5" stroke-miterlimit="10" font-family="'Tahoma'" font-size="10px">0</text>
	
		<text transform="matrix(1 0 0 1 532.0562 620.0319)" fill="#262262" stroke="#000000" stroke-width="0.5" stroke-miterlimit="10" font-family="'Tahoma'" font-size="10px">0</text>
	
		<text transform="matrix(1 0 0 1 498.1114 230.9541)" fill="#262262" stroke="#000000" stroke-width="0.5" stroke-miterlimit="10" font-family="'Tahoma'" font-size="10px">0</text>
	
		<text transform="matrix(1 0 0 1 653.9127 385.4904)" fill="#262262" stroke="#000000" stroke-width="0.5" stroke-miterlimit="10" font-family="'Tahoma'" font-size="10px">0</text>
	
		<text transform="matrix(1 0 0 1 600.1987 279.2827)" fill="#262262" stroke="#000000" stroke-width="0.5" stroke-miterlimit="10" font-family="'Tahoma'" font-size="10px">0</text>
	
		<text transform="matrix(1 0 0 1 366.4465 597.9272)" fill="#262262" stroke="#000000" stroke-width="0.5" stroke-miterlimit="10" font-family="'Tahoma'" font-size="10px">0</text>
	
		<text transform="matrix(1 0 0 1 623.9087 539.1389)" fill="#262262" stroke="#000000" stroke-width="0.5" stroke-miterlimit="10" font-family="'Tahoma'" font-size="10px">0</text>
	
		<text transform="matrix(1 0 0 1 675.5006 447.4151)" fill="#262262" stroke="#000000" stroke-width="0.5" stroke-miterlimit="10" font-family="'Tahoma'" font-size="10px">0</text>
	
		<text transform="matrix(1 0 0 1 473.2554 611.6633)" fill="#262262" stroke="#000000" stroke-width="0.5" stroke-miterlimit="10" font-family="'Tahoma'" font-size="10px">10</text>
	
		<text transform="matrix(1 0 0 1 402.4255 199.5314)" fill="#262262" stroke="#000000" stroke-width="0.5" stroke-miterlimit="10" font-family="'Tahoma'" font-size="10px">0</text>
	
		<text transform="matrix(1 0 0 1 417.2255 115.457)" fill="#262262" stroke="#000000" stroke-width="0.5" stroke-miterlimit="10" font-family="'Tahoma'" font-size="10px">0</text>
	
		<text transform="matrix(1 0 0 1 344.5981 256.1781)" fill="#262262" stroke="#000000" stroke-width="0.5" stroke-miterlimit="10" font-family="'Tahoma'" font-size="10px">0</text>
	
		<text transform="matrix(1 0 0 1 492.6555 209.0705)" fill="#262262" stroke="#000000" stroke-width="0.5" stroke-miterlimit="10" font-family="'Tahoma'" font-size="10px">0</text>
	
		<text transform="matrix(1 0 0 1 693.3538 494.9507)" fill="#262262" stroke="#000000" stroke-width="0.5" stroke-miterlimit="10" font-family="'Tahoma'" font-size="10px">0</text>
	
		<text transform="matrix(1 0 0 1 309.6358 301.9386)" fill="#262262" stroke="#000000" stroke-width="0.5" stroke-miterlimit="10" font-family="'Tahoma'" font-size="10px">0</text>
	
		<text transform="matrix(1 0 0 1 392.1671 614.0109)" fill="#262262" stroke="#000000" stroke-width="0.5" stroke-miterlimit="10" font-family="'Tahoma'" font-size="10px">0</text>
	
		<text transform="matrix(1 0 0 1 670.2878 531.2129)" fill="#262262" stroke="#000000" stroke-width="0.5" stroke-miterlimit="10" font-family="'Tahoma'" font-size="10px">0</text>
	
		<text transform="matrix(1 0 0 1 678.4471 470.9617)" fill="#262262" stroke="#000000" stroke-width="0.5" stroke-miterlimit="10" font-family="'Tahoma'" font-size="10px">0</text>
	
		<text transform="matrix(1 0 0 1 441.5188 659.0623)" fill="#262262" stroke="#000000" stroke-width="0.5" stroke-miterlimit="10" font-family="'Tahoma'" font-size="10px">4</text>
	
		<text transform="matrix(1 0 0 1 690.9465 195.0426)" fill="#262262" stroke="#000000" stroke-width="0.5" stroke-miterlimit="10" font-family="'Tahoma'" font-size="10px">0</text>
	
		<text transform="matrix(1 0 0 1 610.4139 236.3257)" fill="#262262" stroke="#000000" stroke-width="0.5" stroke-miterlimit="10" font-family="'Tahoma'" font-size="10px">0</text>
	
		<text transform="matrix(1 0 0 1 529.4094 218.5893)" fill="#262262" stroke="#000000" stroke-width="0.5" stroke-miterlimit="10" font-family="'Tahoma'" font-size="10px">0</text>
	
		<text transform="matrix(1 0 0 1 555.2714 637.4423)" fill="#262262" stroke="#000000" stroke-width="0.5" stroke-miterlimit="10" font-family="'Tahoma'" font-size="10px">0</text>
	
		<text transform="matrix(1 0 0 1 467.4671 227.0262)" fill="#262262" stroke="#000000" stroke-width="0.5" stroke-miterlimit="10" font-family="'Tahoma'" font-size="10px">0</text>
	
		<text transform="matrix(1 0 0 1 513.1942 639.442)" fill="#262262" stroke="#000000" stroke-width="0.5" stroke-miterlimit="10" font-family="'Tahoma'" font-size="10px">2</text>
	
		<text transform="matrix(1 0 0 1 796.5481 453.5518)" fill="#262262" stroke="#000000" stroke-width="0.5" stroke-miterlimit="10" font-family="'Tahoma'" font-size="10px">0</text>
	
		<text transform="matrix(1 0 0 1 712.4803 405.5741)" fill="#262262" stroke="#000000" stroke-width="0.5" stroke-miterlimit="10" font-family="'Tahoma'" font-size="10px">0</text>
	
		<text transform="matrix(1 0 0 1 364.0544 621.0323)" fill="#262262" stroke="#000000" stroke-width="0.5" stroke-miterlimit="10" font-family="'Tahoma'" font-size="10px">0</text>
	
		<text transform="matrix(1 0 0 1 662.2562 691.7303)" fill="#262262" stroke="#000000" stroke-width="0.5" stroke-miterlimit="10" font-family="'Tahoma'" font-size="10px">0</text>
	
		<text transform="matrix(1 0 0 1 413.2065 146.7548)" fill="#262262" stroke="#000000" stroke-width="0.5" stroke-miterlimit="10" font-family="'Tahoma'" font-size="12px">0</text>
	
		<text transform="matrix(1 0 0 1 408.7345 99.0872)" fill="#262262" stroke="#000000" stroke-width="0.5" stroke-miterlimit="10" font-family="'Tahoma'" font-size="10px">0</text>
	
		<text transform="matrix(1 0 0 1 474.212 139.8288)" fill="#262262" stroke="#000000" stroke-width="0.5" stroke-miterlimit="10" font-family="'Tahoma'" font-size="12px">0</text>
	
		<text transform="matrix(1 0 0 1 349.7922 195.0424)" fill="#262262" stroke="#000000" stroke-width="0.5" stroke-miterlimit="10" font-family="'Tahoma'" font-size="10px">0</text>
	
		<text transform="matrix(1 0 0 1 463.5582 199.5315)" fill="#262262" stroke="#000000" stroke-width="0.5" stroke-miterlimit="10" font-family="'Tahoma'" font-size="10px">0</text>
	
		<text transform="matrix(1 0 0 1 488.1312 694.2296)" fill="#262262" stroke="#000000" stroke-width="0.5" stroke-miterlimit="10" font-family="'Tahoma'" font-size="10px">1</text>
	
		<text transform="matrix(1 0 0 1 764.3486 503.2031)" fill="#262262" stroke="#000000" stroke-width="0.5" stroke-miterlimit="10" font-family="'Tahoma'" font-size="10px">0</text>
	
		<text transform="matrix(1 0 0 1 711.5219 471.9618)" fill="#262262" stroke="#000000" stroke-width="0.5" stroke-miterlimit="10" font-family="'Tahoma'" font-size="10px">0</text>
	
		<text transform="matrix(1 0 0 1 385.9459 638.9883)" fill="#262262" stroke="#000000" stroke-width="0.5" stroke-miterlimit="10" font-family="'Tahoma'" font-size="10px">0</text>
	
		<text transform="matrix(1 0 0 1 686.4024 700.7721)" fill="#262262" stroke="#000000" stroke-width="0.5" stroke-miterlimit="10" font-family="'Tahoma'" font-size="10px">0</text>
	
		<text transform="matrix(1 0 0 1 665.6599 213.4527)" fill="#262262" stroke="#000000" stroke-width="0.5" stroke-miterlimit="10" font-family="'Tahoma'" font-size="10px">0</text>
	
		<text transform="matrix(1 0 0 1 697.7469 176.6326)" fill="#262262" stroke="#000000" stroke-width="0.5" stroke-miterlimit="10" font-family="'Tahoma'" font-size="10px">0</text>
	
		<text transform="matrix(1 0 0 1 580.5704 186.4593)" fill="#262262" stroke="#000000" stroke-width="0.5" stroke-miterlimit="10" font-family="'Tahoma'" font-size="12px">0</text>
	
		<text transform="matrix(1 0 0 1 592.7347 685.5936)" fill="#262262" stroke="#000000" stroke-width="0.5" stroke-miterlimit="10" font-family="'Tahoma'" font-size="10px">0</text>
	
		<text transform="matrix(1 0 0 1 768.0863 434.026)" fill="#262262" stroke="#000000" stroke-width="0.5" stroke-miterlimit="10" font-family="'Tahoma'" font-size="10px">0</text>
	
		<text transform="matrix(1 0 0 1 377.8417 125.5554)" fill="#262262" stroke="#000000" stroke-width="0.5" stroke-miterlimit="10" font-family="'Tahoma'" font-size="12px">2</text>
	
		<text transform="matrix(1 0 0 1 458.0524 164.7228)" fill="#262262" stroke="#000000" stroke-width="0.5" stroke-miterlimit="10" font-family="'Tahoma'" font-size="12px">0</text>
	
		<text transform="matrix(1 0 0 1 534.8025 127.5555)" fill="#262262" stroke="#000000" stroke-width="0.5" stroke-miterlimit="10" font-family="'Tahoma'" font-size="12px">0</text>
	
		<text transform="matrix(1 0 0 1 561.2775 727.4918)" fill="#262262" stroke="#000000" stroke-width="0.5" stroke-miterlimit="10" font-family="'Tahoma'" font-size="12px">0</text>
	
		<text transform="matrix(1 0 0 1 748.0757 477.5615)" fill="#262262" stroke="#000000" stroke-width="0.5" stroke-miterlimit="10" font-family="'Tahoma'" font-size="12px">0</text>
	
		<text transform="matrix(1 0 0 1 650.3243 169.7229)" fill="#262262" stroke="#000000" stroke-width="0.5" stroke-miterlimit="10" font-family="'Tahoma'" font-size="12px">0</text>
	
		<text transform="matrix(1 0 0 1 608.4585 112.05)" fill="#262262" stroke="#000000" stroke-width="0.5" stroke-miterlimit="10" font-family="'Tahoma'" font-size="36px">1127</text>
	
		<text transform="matrix(1 0 0 1 8.9135 266.1099)" fill="#262262" stroke="#000000" stroke-width="0.5" stroke-miterlimit="10" font-family="'Tahoma'" font-size="21px">S.cerevisiae</text>
	
		<text transform="matrix(1 0 0 1 76.0717 751.1335)" fill="#262262" stroke="#000000" stroke-width="0.5" stroke-miterlimit="10" font-family="'Tahoma'" font-size="24px">H.sapiens</text>
	
		<text transform="matrix(1 0 0 1 620.9216 829.1023)" fill="#262262" stroke="#000000" stroke-width="0.5" stroke-miterlimit="10" font-family="'Tahoma'" font-size="24px">D.rerio</text>
	
		<text transform="matrix(1 0 0 1 780.5187 716.405)" fill="#262262" stroke="#000000" stroke-width="0.5" stroke-miterlimit="10" font-family="'Tahoma'" font-size="24px">D.melanogaster</text>
	
		<text transform="matrix(1 0 0 1 175.3812 78.1724)" fill="#262262" stroke="#000000" stroke-width="0.5" stroke-miterlimit="10" font-family="'Tahoma'" font-size="24px">S.pombe</text>
	
		<text transform="matrix(1 0 0 1 764.6532 154.723)" fill="#262262" stroke="#000000" stroke-width="0.5" stroke-miterlimit="10" font-family="'Tahoma'" font-size="24px">C.elegans</text>
	
		<text transform="matrix(1 0 0 1 642.12 54.5105)" fill="#262262" stroke="#000000" stroke-width="0.5" stroke-miterlimit="10" font-family="'Tahoma'" font-size="24px">A.thaliana</text>
</g>
</svg>
